<mxfile host="Electron" agent="Mozilla/5.0 (Windows NT 10.0; Win64; x64) AppleWebKit/537.36 (KHTML, like Gecko) draw.io/24.7.17 Chrome/128.0.6613.36 Electron/32.0.1 Safari/537.36" version="24.7.17">
  <diagram name="Page-1" id="eGec_pED1HADVvbFYvz1">
    <mxGraphModel dx="794" dy="519" grid="1" gridSize="10" guides="1" tooltips="1" connect="1" arrows="1" fold="1" page="1" pageScale="1" pageWidth="850" pageHeight="1100" math="0" shadow="0">
      <root>
        <mxCell id="0" />
        <mxCell id="1" parent="0" />
        <mxCell id="uOno-ktKAhpssZojFqV2-9" style="edgeStyle=orthogonalEdgeStyle;rounded=0;orthogonalLoop=1;jettySize=auto;html=1;exitX=0.5;exitY=1;exitDx=0;exitDy=0;entryX=0.5;entryY=0;entryDx=0;entryDy=0;" parent="1" source="uOno-ktKAhpssZojFqV2-1" target="uOno-ktKAhpssZojFqV2-4" edge="1">
          <mxGeometry relative="1" as="geometry" />
        </mxCell>
        <mxCell id="uOno-ktKAhpssZojFqV2-1" value="&lt;span class=&quot;hljs-selector-tag&quot;&gt;T&lt;/span&gt;ạ&lt;span class=&quot;hljs-selector-tag&quot;&gt;o&lt;/span&gt; &lt;span class=&quot;hljs-selector-tag&quot;&gt;Keystore&lt;/span&gt; &lt;span class=&quot;hljs-selector-tag&quot;&gt;v&lt;/span&gt;à &lt;span class=&quot;hljs-selector-tag&quot;&gt;C&lt;/span&gt;ặ&lt;span class=&quot;hljs-selector-tag&quot;&gt;p&lt;/span&gt; &lt;span class=&quot;hljs-selector-tag&quot;&gt;Kh&lt;/span&gt;ó&lt;span class=&quot;hljs-selector-tag&quot;&gt;a&lt;/span&gt; &lt;span class=&quot;hljs-selector-tag&quot;&gt;Ri&lt;/span&gt;ê&lt;span class=&quot;hljs-selector-tag&quot;&gt;ng&lt;/span&gt; &lt;span class=&quot;hljs-selector-tag&quot;&gt;cho&lt;/span&gt; &lt;span class=&quot;hljs-selector-tag&quot;&gt;CA&lt;/span&gt;" style="ellipse;whiteSpace=wrap;html=1;" parent="1" vertex="1">
          <mxGeometry x="150" y="40" width="140" height="90" as="geometry" />
        </mxCell>
        <mxCell id="uOno-ktKAhpssZojFqV2-2" value="" style="ellipse;whiteSpace=wrap;html=1;" parent="1" vertex="1">
          <mxGeometry x="650" y="90" width="120" height="80" as="geometry" />
        </mxCell>
        <mxCell id="uOno-ktKAhpssZojFqV2-10" style="edgeStyle=orthogonalEdgeStyle;rounded=0;orthogonalLoop=1;jettySize=auto;html=1;exitX=0.5;exitY=1;exitDx=0;exitDy=0;" parent="1" source="uOno-ktKAhpssZojFqV2-3" target="uOno-ktKAhpssZojFqV2-5" edge="1">
          <mxGeometry relative="1" as="geometry" />
        </mxCell>
        <mxCell id="uOno-ktKAhpssZojFqV2-3" value="&lt;span class=&quot;hljs-selector-tag&quot;&gt;T&lt;/span&gt;ạ&lt;span class=&quot;hljs-selector-tag&quot;&gt;o&lt;/span&gt; &lt;span class=&quot;hljs-selector-tag&quot;&gt;Keystore&lt;/span&gt; &lt;span class=&quot;hljs-selector-tag&quot;&gt;v&lt;/span&gt;à &lt;span class=&quot;hljs-selector-tag&quot;&gt;C&lt;/span&gt;ặ&lt;span class=&quot;hljs-selector-tag&quot;&gt;p&lt;/span&gt; &lt;span class=&quot;hljs-selector-tag&quot;&gt;Kh&lt;/span&gt;ó&lt;span class=&quot;hljs-selector-tag&quot;&gt;a&lt;/span&gt; &lt;span class=&quot;hljs-selector-tag&quot;&gt;Ri&lt;/span&gt;ê&lt;span class=&quot;hljs-selector-tag&quot;&gt;ng&lt;/span&gt; &lt;span class=&quot;hljs-selector-tag&quot;&gt;cho&lt;/span&gt; &lt;span class=&quot;hljs-selector-tag&quot;&gt;Kafka&lt;/span&gt; &lt;span class=&quot;hljs-selector-tag&quot;&gt;Broker&lt;/span&gt;" style="ellipse;whiteSpace=wrap;html=1;" parent="1" vertex="1">
          <mxGeometry x="425" y="40" width="120" height="80" as="geometry" />
        </mxCell>
        <mxCell id="uOno-ktKAhpssZojFqV2-13" style="edgeStyle=orthogonalEdgeStyle;rounded=0;orthogonalLoop=1;jettySize=auto;html=1;exitX=0.5;exitY=1;exitDx=0;exitDy=0;entryX=0;entryY=0;entryDx=0;entryDy=0;" parent="1" source="uOno-ktKAhpssZojFqV2-4" target="uOno-ktKAhpssZojFqV2-11" edge="1">
          <mxGeometry relative="1" as="geometry" />
        </mxCell>
        <mxCell id="uOno-ktKAhpssZojFqV2-4" value="&lt;span class=&quot;hljs-selector-tag&quot;&gt;Xu&lt;/span&gt;ấ&lt;span class=&quot;hljs-selector-tag&quot;&gt;t&lt;/span&gt; &lt;span class=&quot;hljs-selector-tag&quot;&gt;Ch&lt;/span&gt;ứ&lt;span class=&quot;hljs-selector-tag&quot;&gt;ng&lt;/span&gt; &lt;span class=&quot;hljs-selector-tag&quot;&gt;Ch&lt;/span&gt;ỉ &lt;span class=&quot;hljs-selector-tag&quot;&gt;CA&lt;/span&gt; &lt;span class=&quot;hljs-selector-tag&quot;&gt;sang&lt;/span&gt; &lt;span class=&quot;hljs-selector-tag&quot;&gt;File&lt;/span&gt; &lt;span class=&quot;hljs-selector-tag&quot;&gt;PEM&lt;/span&gt;" style="ellipse;whiteSpace=wrap;html=1;" parent="1" vertex="1">
          <mxGeometry x="160" y="180" width="120" height="80" as="geometry" />
        </mxCell>
        <mxCell id="uOno-ktKAhpssZojFqV2-12" style="edgeStyle=orthogonalEdgeStyle;rounded=0;orthogonalLoop=1;jettySize=auto;html=1;exitX=0;exitY=0.5;exitDx=0;exitDy=0;entryX=1;entryY=0;entryDx=0;entryDy=0;" parent="1" source="uOno-ktKAhpssZojFqV2-5" target="uOno-ktKAhpssZojFqV2-11" edge="1">
          <mxGeometry relative="1" as="geometry" />
        </mxCell>
        <mxCell id="uOno-ktKAhpssZojFqV2-5" value="&lt;span class=&quot;hljs-selector-tag&quot;&gt;T&lt;/span&gt;ạ&lt;span class=&quot;hljs-selector-tag&quot;&gt;o&lt;/span&gt; &lt;span class=&quot;hljs-selector-tag&quot;&gt;Y&lt;/span&gt;ê&lt;span class=&quot;hljs-selector-tag&quot;&gt;u&lt;/span&gt; &lt;span class=&quot;hljs-selector-tag&quot;&gt;C&lt;/span&gt;ầ&lt;span class=&quot;hljs-selector-tag&quot;&gt;u&lt;/span&gt; &lt;span class=&quot;hljs-selector-tag&quot;&gt;K&lt;/span&gt;ý &lt;span class=&quot;hljs-selector-tag&quot;&gt;Ch&lt;/span&gt;ứ&lt;span class=&quot;hljs-selector-tag&quot;&gt;ng&lt;/span&gt; &lt;span class=&quot;hljs-selector-tag&quot;&gt;Ch&lt;/span&gt;ỉ (CSR) &lt;span class=&quot;hljs-selector-tag&quot;&gt;cho&lt;/span&gt; &lt;span class=&quot;hljs-selector-tag&quot;&gt;Kafka&lt;/span&gt; &lt;span class=&quot;hljs-selector-tag&quot;&gt;Broker&lt;/span&gt;" style="ellipse;whiteSpace=wrap;html=1;" parent="1" vertex="1">
          <mxGeometry x="425" y="180" width="120" height="80" as="geometry" />
        </mxCell>
        <mxCell id="uOno-ktKAhpssZojFqV2-6" value="&amp;nbsp;&lt;span class=&quot;hljs-selector-tag&quot;&gt;Ch&lt;/span&gt;ứ&lt;span class=&quot;hljs-selector-tag&quot;&gt;ng&lt;/span&gt; &lt;span class=&quot;hljs-selector-tag&quot;&gt;Ch&lt;/span&gt;ỉ &lt;span class=&quot;hljs-selector-tag&quot;&gt;Kafka&lt;/span&gt; &lt;span class=&quot;hljs-selector-tag&quot;&gt;Broker&lt;/span&gt;" style="ellipse;whiteSpace=wrap;html=1;" parent="1" vertex="1">
          <mxGeometry x="280" y="380" width="120" height="80" as="geometry" />
        </mxCell>
        <mxCell id="uOno-ktKAhpssZojFqV2-7" value="&lt;span class=&quot;hljs-selector-tag&quot;&gt;Import&lt;/span&gt; &lt;span class=&quot;hljs-selector-tag&quot;&gt;Ch&lt;/span&gt;ứ&lt;span class=&quot;hljs-selector-tag&quot;&gt;ng&lt;/span&gt; &lt;span class=&quot;hljs-selector-tag&quot;&gt;Ch&lt;/span&gt;ỉ &lt;span class=&quot;hljs-selector-tag&quot;&gt;CA&lt;/span&gt; &lt;span class=&quot;hljs-selector-tag&quot;&gt;v&lt;/span&gt;à&lt;span class=&quot;hljs-selector-tag&quot;&gt;o&lt;/span&gt; &lt;span class=&quot;hljs-selector-tag&quot;&gt;Truststore&lt;/span&gt;" style="ellipse;whiteSpace=wrap;html=1;" parent="1" vertex="1">
          <mxGeometry x="110" y="330" width="120" height="80" as="geometry" />
        </mxCell>
        <mxCell id="uOno-ktKAhpssZojFqV2-8" value="&lt;span class=&quot;hljs-selector-tag&quot;&gt;Import&lt;/span&gt; &lt;span class=&quot;hljs-selector-tag&quot;&gt;Ch&lt;/span&gt;ứ&lt;span class=&quot;hljs-selector-tag&quot;&gt;ng&lt;/span&gt; &lt;span class=&quot;hljs-selector-tag&quot;&gt;Ch&lt;/span&gt;ỉ &lt;span class=&quot;hljs-selector-tag&quot;&gt;Kafka&lt;/span&gt; &lt;span class=&quot;hljs-selector-tag&quot;&gt;Broker&lt;/span&gt; đã &lt;span class=&quot;hljs-selector-tag&quot;&gt;K&lt;/span&gt;ý &lt;span class=&quot;hljs-selector-tag&quot;&gt;v&lt;/span&gt;à&lt;span class=&quot;hljs-selector-tag&quot;&gt;o&lt;/span&gt; &lt;span class=&quot;hljs-selector-tag&quot;&gt;Keystore&lt;/span&gt;" style="ellipse;whiteSpace=wrap;html=1;" parent="1" vertex="1">
          <mxGeometry x="430" y="330" width="120" height="80" as="geometry" />
        </mxCell>
        <mxCell id="uOno-ktKAhpssZojFqV2-14" value="Tạo ra" style="edgeStyle=orthogonalEdgeStyle;rounded=0;orthogonalLoop=1;jettySize=auto;html=1;exitX=0.5;exitY=1;exitDx=0;exitDy=0;entryX=0.5;entryY=0;entryDx=0;entryDy=0;" parent="1" source="uOno-ktKAhpssZojFqV2-11" target="uOno-ktKAhpssZojFqV2-6" edge="1">
          <mxGeometry relative="1" as="geometry" />
        </mxCell>
        <mxCell id="uOno-ktKAhpssZojFqV2-11" value="&lt;span class=&quot;hljs-selector-tag&quot;&gt;K&lt;/span&gt;ý&amp;nbsp;&lt;span class=&quot;hljs-selector-tag&quot;&gt;CSR&lt;/span&gt;&amp;nbsp;&lt;div&gt;&lt;span class=&quot;hljs-selector-tag&quot;&gt;b&lt;/span&gt;ằ&lt;span class=&quot;hljs-selector-tag&quot;&gt;ng&lt;/span&gt;&amp;nbsp;&lt;span class=&quot;hljs-selector-tag&quot;&gt;CA&lt;/span&gt;&amp;nbsp;&lt;/div&gt;" style="rhombus;whiteSpace=wrap;html=1;" parent="1" vertex="1">
          <mxGeometry x="300" y="260" width="80" height="80" as="geometry" />
        </mxCell>
      </root>
    </mxGraphModel>
  </diagram>
</mxfile>
